M48
; DRILL file {KiCad 9.0.1} date 2025-04-13T13:12:51+0200
; FORMAT={-:-/ absolute / inch / decimal}
; #@! TF.CreationDate,2025-04-13T13:12:51+02:00
; #@! TF.GenerationSoftware,Kicad,Pcbnew,9.0.1
; #@! TF.FileFunction,Plated,1,2,PTH
FMAT,2
INCH
; #@! TA.AperFunction,Plated,PTH,ComponentDrill
T1C0.0394
; #@! TA.AperFunction,Plated,PTH,ComponentDrill
T2C0.0402
%
G90
G05
T1
X2.9252Y-0.689
X3.0252Y-0.689
X3.1252Y-0.689
X3.2252Y-0.689
X3.3252Y-0.689
X3.4252Y-0.689
T2
X2.7362Y-1.752
X2.7362Y-1.852
X2.7362Y-1.952
X2.7362Y-2.052
X2.7362Y-2.152
X2.7362Y-2.252
X2.7362Y-2.352
X2.7362Y-2.452
X2.7362Y-2.552
X2.7362Y-2.652
X2.7362Y-2.752
X2.7362Y-2.852
X2.7362Y-2.952
X2.7362Y-3.052
X2.7362Y-3.152
X2.7362Y-3.252
X2.7362Y-3.352
X2.7362Y-3.452
X2.7362Y-3.552
X2.7362Y-3.652
X2.7362Y-3.752
X2.7362Y-3.852
X3.6362Y-1.752
X3.6362Y-1.852
X3.6362Y-1.952
X3.6362Y-2.052
X3.6362Y-2.152
X3.6362Y-2.252
X3.6362Y-2.352
X3.6362Y-2.452
X3.6362Y-2.552
X3.6362Y-2.652
X3.6362Y-2.752
X3.6362Y-2.852
X3.6362Y-2.952
X3.6362Y-3.052
X3.6362Y-3.152
X3.6362Y-3.252
X3.6362Y-3.352
X3.6362Y-3.452
X3.6362Y-3.552
X3.6362Y-3.652
X3.6362Y-3.752
X3.6362Y-3.852
M30
