%TF.GenerationSoftware,KiCad,Pcbnew,9.0.1*%
%TF.CreationDate,2025-04-13T13:12:51+02:00*%
%TF.ProjectId,esp32-schematic,65737033-322d-4736-9368-656d61746963,rev?*%
%TF.SameCoordinates,Original*%
%TF.FileFunction,Soldermask,Bot*%
%TF.FilePolarity,Negative*%
%FSLAX46Y46*%
G04 Gerber Fmt 4.6, Leading zero omitted, Abs format (unit mm)*
G04 Created by KiCad (PCBNEW 9.0.1) date 2025-04-13 13:12:51*
%MOMM*%
%LPD*%
G01*
G04 APERTURE LIST*
G04 Aperture macros list*
%AMRoundRect*
0 Rectangle with rounded corners*
0 $1 Rounding radius*
0 $2 $3 $4 $5 $6 $7 $8 $9 X,Y pos of 4 corners*
0 Add a 4 corners polygon primitive as box body*
4,1,4,$2,$3,$4,$5,$6,$7,$8,$9,$2,$3,0*
0 Add four circle primitives for the rounded corners*
1,1,$1+$1,$2,$3*
1,1,$1+$1,$4,$5*
1,1,$1+$1,$6,$7*
1,1,$1+$1,$8,$9*
0 Add four rect primitives between the rounded corners*
20,1,$1+$1,$2,$3,$4,$5,0*
20,1,$1+$1,$4,$5,$6,$7,0*
20,1,$1+$1,$6,$7,$8,$9,0*
20,1,$1+$1,$8,$9,$2,$3,0*%
G04 Aperture macros list end*
%ADD10R,1.700000X1.700000*%
%ADD11C,1.700000*%
%ADD12RoundRect,0.102000X-0.765000X-0.765000X0.765000X-0.765000X0.765000X0.765000X-0.765000X0.765000X0*%
%ADD13C,1.734000*%
G04 APERTURE END LIST*
D10*
%TO.C,J1*%
X87000000Y-17500000D03*
D11*
X84460000Y-17500000D03*
X81920000Y-17500000D03*
D10*
X79380000Y-17500000D03*
D11*
X76840000Y-17500000D03*
X74300000Y-17500000D03*
%TD*%
D12*
%TO.C,U1*%
X69500000Y-44500000D03*
D13*
X69500000Y-47040000D03*
X69500000Y-49580000D03*
X69500000Y-52120000D03*
X69500000Y-54660000D03*
X69500000Y-57200000D03*
X69500000Y-59740000D03*
X69500000Y-62280000D03*
X69500000Y-64820000D03*
X69500000Y-67360000D03*
X69500000Y-69900000D03*
X69500000Y-72440000D03*
X69500000Y-74980000D03*
X69500000Y-77520000D03*
X69500000Y-80060000D03*
X69500000Y-82600000D03*
X69500000Y-85140000D03*
X69500000Y-87680000D03*
X69500000Y-90220000D03*
X69500000Y-92760000D03*
X69500000Y-95300000D03*
X69500000Y-97840000D03*
X92360000Y-44500000D03*
X92360000Y-47040000D03*
X92360000Y-49580000D03*
X92360000Y-52120000D03*
X92360000Y-54660000D03*
X92360000Y-57200000D03*
X92360000Y-59740000D03*
X92360000Y-62280000D03*
X92360000Y-64820000D03*
X92360000Y-67360000D03*
X92360000Y-69900000D03*
X92360000Y-72440000D03*
X92360000Y-74980000D03*
X92360000Y-77520000D03*
X92360000Y-80060000D03*
X92360000Y-82600000D03*
X92360000Y-85140000D03*
X92360000Y-87680000D03*
X92360000Y-90220000D03*
X92360000Y-92760000D03*
X92360000Y-95300000D03*
X92360000Y-97840000D03*
%TD*%
M02*
