%TF.GenerationSoftware,KiCad,Pcbnew,9.0.1*%
%TF.CreationDate,2025-04-13T13:12:51+02:00*%
%TF.ProjectId,esp32-schematic,65737033-322d-4736-9368-656d61746963,rev?*%
%TF.SameCoordinates,Original*%
%TF.FileFunction,Copper,L1,Top*%
%TF.FilePolarity,Positive*%
%FSLAX46Y46*%
G04 Gerber Fmt 4.6, Leading zero omitted, Abs format (unit mm)*
G04 Created by KiCad (PCBNEW 9.0.1) date 2025-04-13 13:12:51*
%MOMM*%
%LPD*%
G01*
G04 APERTURE LIST*
G04 Aperture macros list*
%AMRoundRect*
0 Rectangle with rounded corners*
0 $1 Rounding radius*
0 $2 $3 $4 $5 $6 $7 $8 $9 X,Y pos of 4 corners*
0 Add a 4 corners polygon primitive as box body*
4,1,4,$2,$3,$4,$5,$6,$7,$8,$9,$2,$3,0*
0 Add four circle primitives for the rounded corners*
1,1,$1+$1,$2,$3*
1,1,$1+$1,$4,$5*
1,1,$1+$1,$6,$7*
1,1,$1+$1,$8,$9*
0 Add four rect primitives between the rounded corners*
20,1,$1+$1,$2,$3,$4,$5,0*
20,1,$1+$1,$4,$5,$6,$7,0*
20,1,$1+$1,$6,$7,$8,$9,0*
20,1,$1+$1,$8,$9,$2,$3,0*%
G04 Aperture macros list end*
%ADD10C,0.300000*%
%TA.AperFunction,NonConductor*%
%ADD11C,0.300000*%
%TD*%
%TA.AperFunction,NonConductor*%
%ADD12C,0.200000*%
%TD*%
%TA.AperFunction,SMDPad,CuDef*%
%ADD13RoundRect,0.250000X-0.312500X-0.625000X0.312500X-0.625000X0.312500X0.625000X-0.312500X0.625000X0*%
%TD*%
%TA.AperFunction,SMDPad,CuDef*%
%ADD14RoundRect,0.150000X-0.825000X-0.150000X0.825000X-0.150000X0.825000X0.150000X-0.825000X0.150000X0*%
%TD*%
%TA.AperFunction,ComponentPad*%
%ADD15R,1.700000X1.700000*%
%TD*%
%TA.AperFunction,ComponentPad*%
%ADD16C,1.700000*%
%TD*%
%TA.AperFunction,ComponentPad*%
%ADD17R,1.530000X1.530000*%
%TD*%
%TA.AperFunction,ComponentPad*%
%ADD18C,1.530000*%
%TD*%
G04 APERTURE END LIST*
D10*
D11*
X73483082Y-29372257D02*
X74197368Y-29372257D01*
X73340225Y-29800828D02*
X73840225Y-28300828D01*
X73840225Y-28300828D02*
X74340225Y-29800828D01*
X74840224Y-29800828D02*
X74840224Y-28300828D01*
X74840224Y-28300828D02*
X75697367Y-29800828D01*
X75697367Y-29800828D02*
X75697367Y-28300828D01*
X76197368Y-28300828D02*
X77054511Y-28300828D01*
X76625939Y-29800828D02*
X76625939Y-28300828D01*
X77554510Y-29015114D02*
X78054510Y-29015114D01*
X78268796Y-29800828D02*
X77554510Y-29800828D01*
X77554510Y-29800828D02*
X77554510Y-28300828D01*
X77554510Y-28300828D02*
X78268796Y-28300828D01*
X78911653Y-29800828D02*
X78911653Y-28300828D01*
X78911653Y-28300828D02*
X79768796Y-29800828D01*
X79768796Y-29800828D02*
X79768796Y-28300828D01*
X80411654Y-29372257D02*
X81125940Y-29372257D01*
X80268797Y-29800828D02*
X80768797Y-28300828D01*
X80768797Y-28300828D02*
X81268797Y-29800828D01*
X83697368Y-28372257D02*
X83554511Y-28300828D01*
X83554511Y-28300828D02*
X83340225Y-28300828D01*
X83340225Y-28300828D02*
X83125939Y-28372257D01*
X83125939Y-28372257D02*
X82983082Y-28515114D01*
X82983082Y-28515114D02*
X82911653Y-28657971D01*
X82911653Y-28657971D02*
X82840225Y-28943685D01*
X82840225Y-28943685D02*
X82840225Y-29157971D01*
X82840225Y-29157971D02*
X82911653Y-29443685D01*
X82911653Y-29443685D02*
X82983082Y-29586542D01*
X82983082Y-29586542D02*
X83125939Y-29729400D01*
X83125939Y-29729400D02*
X83340225Y-29800828D01*
X83340225Y-29800828D02*
X83483082Y-29800828D01*
X83483082Y-29800828D02*
X83697368Y-29729400D01*
X83697368Y-29729400D02*
X83768796Y-29657971D01*
X83768796Y-29657971D02*
X83768796Y-29157971D01*
X83768796Y-29157971D02*
X83483082Y-29157971D01*
X84411653Y-29800828D02*
X84411653Y-28300828D01*
X84411653Y-28300828D02*
X84983082Y-28300828D01*
X84983082Y-28300828D02*
X85125939Y-28372257D01*
X85125939Y-28372257D02*
X85197368Y-28443685D01*
X85197368Y-28443685D02*
X85268796Y-28586542D01*
X85268796Y-28586542D02*
X85268796Y-28800828D01*
X85268796Y-28800828D02*
X85197368Y-28943685D01*
X85197368Y-28943685D02*
X85125939Y-29015114D01*
X85125939Y-29015114D02*
X84983082Y-29086542D01*
X84983082Y-29086542D02*
X84411653Y-29086542D01*
X85840225Y-29729400D02*
X86054511Y-29800828D01*
X86054511Y-29800828D02*
X86411653Y-29800828D01*
X86411653Y-29800828D02*
X86554511Y-29729400D01*
X86554511Y-29729400D02*
X86625939Y-29657971D01*
X86625939Y-29657971D02*
X86697368Y-29515114D01*
X86697368Y-29515114D02*
X86697368Y-29372257D01*
X86697368Y-29372257D02*
X86625939Y-29229400D01*
X86625939Y-29229400D02*
X86554511Y-29157971D01*
X86554511Y-29157971D02*
X86411653Y-29086542D01*
X86411653Y-29086542D02*
X86125939Y-29015114D01*
X86125939Y-29015114D02*
X85983082Y-28943685D01*
X85983082Y-28943685D02*
X85911653Y-28872257D01*
X85911653Y-28872257D02*
X85840225Y-28729400D01*
X85840225Y-28729400D02*
X85840225Y-28586542D01*
X85840225Y-28586542D02*
X85911653Y-28443685D01*
X85911653Y-28443685D02*
X85983082Y-28372257D01*
X85983082Y-28372257D02*
X86125939Y-28300828D01*
X86125939Y-28300828D02*
X86483082Y-28300828D01*
X86483082Y-28300828D02*
X86697368Y-28372257D01*
D12*
X65500000Y-14500000D02*
X94500000Y-14500000D01*
X94500000Y-38500000D01*
X65500000Y-38500000D01*
X65500000Y-14500000D01*
D13*
%TO.P,R1,1*%
%TO.N,CANH*%
X110575000Y-39500000D03*
%TO.P,R1,2*%
%TO.N,Net-(JP1-A)*%
X113500000Y-39500000D03*
%TD*%
D14*
%TO.P,U2,1,TXD*%
%TO.N,unconnected-(U2-TXD-Pad1)*%
X117050000Y-50190000D03*
%TO.P,U2,2,GND*%
%TO.N,unconnected-(U2-GND-Pad2)*%
X117050000Y-51460000D03*
%TO.P,U2,3,VCC*%
%TO.N,unconnected-(U2-VCC-Pad3)*%
X117050000Y-52730000D03*
%TO.P,U2,4,RXD*%
%TO.N,unconnected-(U2-RXD-Pad4)*%
X117050000Y-54000000D03*
%TO.P,U2,5,NC*%
%TO.N,unconnected-(U2-NC-Pad5)*%
X122000000Y-54000000D03*
%TO.P,U2,6,CANL*%
%TO.N,CANL*%
X122000000Y-52730000D03*
%TO.P,U2,7,CANH*%
%TO.N,CANH*%
X122000000Y-51460000D03*
%TO.P,U2,8,S*%
%TO.N,unconnected-(U2-S-Pad8)*%
X122000000Y-50190000D03*
%TD*%
D15*
%TO.P,J1,1,Pin_1*%
%TO.N,3.3V*%
X87000000Y-17500000D03*
D16*
%TO.P,J1,2,Pin_2*%
%TO.N,PPS*%
X84460000Y-17500000D03*
%TO.P,J1,3,Pin_3*%
%TO.N,TX*%
X81920000Y-17500000D03*
D15*
%TO.P,J1,4,Pin_4*%
%TO.N,RX*%
X79380000Y-17500000D03*
D16*
%TO.P,J1,5,Pin_5*%
%TO.N,GND*%
X76840000Y-17500000D03*
%TO.P,J1,6,Pin_6*%
%TO.N,5V*%
X74300000Y-17500000D03*
%TD*%
D17*
%TO.P,U1,J1_1,3V3*%
%TO.N,3.3V*%
X69500000Y-44500000D03*
D18*
%TO.P,U1,J1_2,3V3*%
X69500000Y-47040000D03*
%TO.P,U1,J1_3,RST*%
%TO.N,unconnected-(U1-RST-PadJ1_3)*%
X69500000Y-49580000D03*
%TO.P,U1,J1_4,GPIO4*%
%TO.N,unconnected-(U1-GPIO4-PadJ1_4)*%
X69500000Y-52120000D03*
%TO.P,U1,J1_5,GPIO5*%
%TO.N,PPS*%
X69500000Y-54660000D03*
%TO.P,U1,J1_6,GPIO6*%
%TO.N,unconnected-(U1-GPIO6-PadJ1_6)*%
X69500000Y-57200000D03*
%TO.P,U1,J1_7,GPIO7*%
%TO.N,unconnected-(U1-GPIO7-PadJ1_7)*%
X69500000Y-59740000D03*
%TO.P,U1,J1_8,GPIO15*%
%TO.N,unconnected-(U1-GPIO15-PadJ1_8)*%
X69500000Y-62280000D03*
%TO.P,U1,J1_9,GPIO16*%
%TO.N,unconnected-(U1-GPIO16-PadJ1_9)*%
X69500000Y-64820000D03*
%TO.P,U1,J1_10,GPIO17*%
%TO.N,unconnected-(U1-GPIO17-PadJ1_10)*%
X69500000Y-67360000D03*
%TO.P,U1,J1_11,GPIO18*%
%TO.N,unconnected-(U1-GPIO18-PadJ1_11)*%
X69500000Y-69900000D03*
%TO.P,U1,J1_12,GPIO8*%
%TO.N,unconnected-(U1-GPIO8-PadJ1_12)*%
X69500000Y-72440000D03*
%TO.P,U1,J1_13,GPIO3*%
%TO.N,unconnected-(U1-GPIO3-PadJ1_13)*%
X69500000Y-74980000D03*
%TO.P,U1,J1_14,GPIO46*%
%TO.N,unconnected-(U1-GPIO46-PadJ1_14)*%
X69500000Y-77520000D03*
%TO.P,U1,J1_15,GPIO9*%
%TO.N,unconnected-(U1-GPIO9-PadJ1_15)*%
X69500000Y-80060000D03*
%TO.P,U1,J1_16,GPIO10*%
%TO.N,unconnected-(U1-GPIO10-PadJ1_16)*%
X69500000Y-82600000D03*
%TO.P,U1,J1_17,GPIO11*%
%TO.N,unconnected-(U1-GPIO11-PadJ1_17)*%
X69500000Y-85140000D03*
%TO.P,U1,J1_18,GPIO12*%
%TO.N,unconnected-(U1-GPIO12-PadJ1_18)*%
X69500000Y-87680000D03*
%TO.P,U1,J1_19,GPIO13*%
%TO.N,unconnected-(U1-GPIO13-PadJ1_19)*%
X69500000Y-90220000D03*
%TO.P,U1,J1_20,GPIO14*%
%TO.N,unconnected-(U1-GPIO14-PadJ1_20)*%
X69500000Y-92760000D03*
%TO.P,U1,J1_21,5V0*%
%TO.N,5V*%
X69500000Y-95300000D03*
%TO.P,U1,J1_22,GND*%
%TO.N,GND*%
X69500000Y-97840000D03*
%TO.P,U1,J3_1,GND*%
X92360000Y-44500000D03*
%TO.P,U1,J3_2,U0TXD/GPIO43*%
%TO.N,TX*%
X92360000Y-47040000D03*
%TO.P,U1,J3_3,U0RXD/GPIO44*%
%TO.N,RX*%
X92360000Y-49580000D03*
%TO.P,U1,J3_4,GPIO1*%
%TO.N,unconnected-(U1-GPIO1-PadJ3_4)*%
X92360000Y-52120000D03*
%TO.P,U1,J3_5,GPIO2*%
%TO.N,unconnected-(U1-GPIO2-PadJ3_5)*%
X92360000Y-54660000D03*
%TO.P,U1,J3_6,MTMS/GPIO42*%
%TO.N,unconnected-(U1-MTMS{slash}GPIO42-PadJ3_6)*%
X92360000Y-57200000D03*
%TO.P,U1,J3_7,MTDI/GPIO41*%
%TO.N,unconnected-(U1-MTDI{slash}GPIO41-PadJ3_7)*%
X92360000Y-59740000D03*
%TO.P,U1,J3_8,MTDO/GPIO40*%
%TO.N,unconnected-(U1-MTDO{slash}GPIO40-PadJ3_8)*%
X92360000Y-62280000D03*
%TO.P,U1,J3_9,MTCK/GPIO39*%
%TO.N,unconnected-(U1-MTCK{slash}GPIO39-PadJ3_9)*%
X92360000Y-64820000D03*
%TO.P,U1,J3_10,GPIO38*%
%TO.N,unconnected-(U1-GPIO38-PadJ3_10)*%
X92360000Y-67360000D03*
%TO.P,U1,J3_11,GPIO37*%
%TO.N,unconnected-(U1-GPIO37-PadJ3_11)*%
X92360000Y-69900000D03*
%TO.P,U1,J3_12,GPIO36*%
%TO.N,unconnected-(U1-GPIO36-PadJ3_12)*%
X92360000Y-72440000D03*
%TO.P,U1,J3_13,GPIO35*%
%TO.N,unconnected-(U1-GPIO35-PadJ3_13)*%
X92360000Y-74980000D03*
%TO.P,U1,J3_14,GPIO0*%
%TO.N,unconnected-(U1-GPIO0-PadJ3_14)*%
X92360000Y-77520000D03*
%TO.P,U1,J3_15,GPIO45*%
%TO.N,unconnected-(U1-GPIO45-PadJ3_15)*%
X92360000Y-80060000D03*
%TO.P,U1,J3_16,GPIO48*%
%TO.N,unconnected-(U1-GPIO48-PadJ3_16)*%
X92360000Y-82600000D03*
%TO.P,U1,J3_17,GPIO47*%
%TO.N,unconnected-(U1-GPIO47-PadJ3_17)*%
X92360000Y-85140000D03*
%TO.P,U1,J3_18,GPIO21*%
%TO.N,unconnected-(U1-GPIO21-PadJ3_18)*%
X92360000Y-87680000D03*
%TO.P,U1,J3_19,USB_D+/GPIO20*%
%TO.N,unconnected-(U1-USB_D+{slash}GPIO20-PadJ3_19)*%
X92360000Y-90220000D03*
%TO.P,U1,J3_20,USB_D-/GPIO19*%
%TO.N,unconnected-(U1-USB_D-{slash}GPIO19-PadJ3_20)*%
X92360000Y-92760000D03*
%TO.P,U1,J3_21,GND*%
%TO.N,GND*%
X92360000Y-95300000D03*
%TO.P,U1,J3_22,GND*%
X92360000Y-97840000D03*
%TD*%
M02*
